<?xml version="1.0" encoding="UTF-8" standalone="no"?>
<!-- Created with Inkscape (http://www.inkscape.org/) -->

<svg
   xmlns:dc="http://purl.org/dc/elements/1.1/"
   xmlns:cc="http://creativecommons.org/ns#"
   xmlns:rdf="http://www.w3.org/1999/02/22-rdf-syntax-ns#"
   xmlns:svg="http://www.w3.org/2000/svg"
   xmlns="http://www.w3.org/2000/svg"
   xmlns:xlink="http://www.w3.org/1999/xlink"
   version="1.1"
   width="925.7005"
   height="996.35919"
   id="svg2">
  <defs
     id="defs4">
    <linearGradient
       id="linearGradient5005">
      <stop
         id="stop5007"
         style="stop-color:#9cccce;stop-opacity:1"
         offset="0" />
      <stop
         id="stop5009"
         style="stop-color:#409e9f;stop-opacity:1"
         offset="1" />
    </linearGradient>
    <radialGradient
       cx="375.51248"
       cy="386.91043"
       r="327.47656"
       fx="375.51248"
       fy="386.91043"
       id="radialGradient5013"
       xlink:href="#linearGradient5005"
       gradientUnits="userSpaceOnUse"
       gradientTransform="matrix(1,0,0,1.0459495,-48.487322,-60.204759)" />
    <radialGradient
       cx="327.02515"
       cy="344.48401"
       r="327.47656"
       fx="327.02515"
       fy="344.48401"
       id="radialGradient4326"
       xlink:href="#linearGradient4320"
       gradientUnits="userSpaceOnUse"
       gradientTransform="matrix(1,0,0,1.0459495,730.70587,298.54948)" />
    <radialGradient
       cx="375.51248"
       cy="386.91043"
       r="327.47656"
       fx="375.51248"
       fy="386.91043"
       id="radialGradient5013-8"
       xlink:href="#linearGradient5005-6"
       gradientUnits="userSpaceOnUse"
       gradientTransform="matrix(1,0,0,1.0459495,-48.487322,-60.204759)" />
    <linearGradient
       id="linearGradient5005-6">
      <stop
         id="stop5007-7"
         style="stop-color:#007e80;stop-opacity:1"
         offset="0" />
      <stop
         id="stop5009-0"
         style="stop-color:#008080;stop-opacity:1"
         offset="1" />
    </linearGradient>
    <linearGradient
       id="linearGradient4320">
      <stop
         id="stop4322"
         style="stop-color:#90c6c8;stop-opacity:1"
         offset="0" />
      <stop
         id="stop4324"
         style="stop-color:#409e9f;stop-opacity:1"
         offset="1" />
    </linearGradient>
  </defs>
  <metadata
     id="metadata7">
    <rdf:RDF>
      <cc:Work
         rdf:about="">
        <dc:format>image/svg+xml</dc:format>
        <dc:type
           rdf:resource="http://purl.org/dc/dcmitype/StillImage" />
        <dc:title></dc:title>
      </cc:Work>
    </rdf:RDF>
  </metadata>
  <rect
     width="925.7005"
     height="996.35919"
     x="0"
     y="0"
     id="rect3773"
     style="fill:#409e9f;fill-opacity:1;stroke:none" />
  <text
     x="101.42021"
     y="927.59717"
     id="text3775"
     xml:space="preserve"
     style="font-size:40px;font-style:normal;font-weight:normal;line-height:125%;letter-spacing:0px;word-spacing:0px;fill:#000000;fill-opacity:1;stroke:none;font-family:Bitstream Vera Sans"><tspan
       x="101.42021"
       y="927.59717"
       id="tspan3777"
       style="font-size:180px;font-style:normal;font-variant:normal;font-weight:bold;font-stretch:normal;fill:#ffffff;fill-opacity:1;font-family:PT Sans;-inkscape-font-specification:PT Sans Bold">Declutter</tspan></text>
  <g
     transform="translate(-591.75258,-240.25625)"
     id="layer1">
    <rect
       width="654.95312"
       height="685.04791"
       x="730.25446"
       y="316.33841"
       id="rect4041-6"
       style="fill:url(#radialGradient4326);fill-opacity:1;stroke:none" />
    <path
       d="m 1150.8347,609.43683 c -1.6882,-7.53754 13.0136,-0.0795 19.5199,0 5.3688,0 7.1841,13.81115 2.7114,20.62956 -4.216,6.42695 -5.5347,10.07257 -3.6437,10.07257 0.9845,0 1.1761,2.45387 0.5558,7.1169 -0.8628,6.48421 -0.6231,7.38022 2.6958,10.07895 4.074,3.31269 5.1191,10.58226 1.5213,10.58226 -1.7918,0 -2.1214,3.42295 -2.1214,22.03453 0,18.0364 -0.4013,22.44935 -2.2117,24.32079 -2.006,2.07369 -1.743,2.6856 2.8286,6.58104 2.7722,2.36212 5.0403,5.25437 5.0403,6.42722 0,1.17285 0.9547,2.51114 2.1215,2.97398 1.3188,0.52315 2.1214,2.751 2.1214,5.88844 0,2.99228 -0.5757,4.67903 -1.4143,4.14331 -0.7778,-0.49697 -1.4143,0.0716 -1.4143,1.26355 0,1.19191 -1.5911,4.1218 -3.5357,6.51085 -1.9447,2.38907 -3.5358,5.40903 -3.5358,6.71104 0,1.30201 -0.7354,3.5847 -1.6344,5.07263 -2.4977,4.13438 1.8247,46.80819 4.9829,49.19547 1.2698,0.95981 2.3087,2.79468 2.3087,4.0775 0,1.28284 1.5911,4.7561 3.5358,7.71839 1.9447,2.96227 3.5357,6.28101 3.5357,7.37496 0,1.09394 1.2729,1.98898 2.8287,1.98898 2.3571,0 2.8286,0.97468 2.8286,5.84803 0,4.98076 -0.4439,5.84802 -2.9936,5.84802 -2.2979,0 -2.8216,0.67992 -2.2533,2.92603 0.407,1.60932 0.2657,2.62293 -0.3142,2.25246 -1.2857,-0.82146 -7.1677,9.68924 -7.1677,12.80831 0,1.23069 -0.5832,2.45692 -1.296,2.72496 -4.1749,1.56981 6.8258,19.04738 13.7356,21.82269 1.7856,0.71719 3.0585,2.20225 2.8286,3.30013 -0.2299,1.09788 1.4913,3.98327 3.8249,6.41197 8.1123,8.44285 9.7006,12.43415 6.3336,15.91485 -2.699,2.78998 3.1615,7.51561 10.6895,8.61952 10.7354,1.57428 18.7719,5.66433 19.8494,10.10212 0.5023,2.06873 1.4807,3.76134 2.1742,3.76134 0.6935,0 1.261,2.38322 1.261,5.29603 0,4.78695 0.2294,5.10316 2.3863,3.28952 2.1006,-1.76631 2.2699,-1.68593 1.4143,0.67157 -0.5346,1.47294 -0.972,3.12391 -0.972,3.66883 0,0.54492 -1.432,1.90011 -3.1822,3.01154 -3.1821,2.02079 -3.1821,2.02079 -0.3535,-1.32307 2.8286,-3.34384 2.8286,-3.34384 -0.4454,-1.56688 -7.1639,3.88822 -105.251,9.54217 -108.4137,6.24919 l -2e-4,2e-5 c -0.2326,-0.24221 -5.452,-0.70238 -11.5987,-1.02262 -6.1467,-0.32023 -12.2859,-1.02263 -13.6428,-1.56088 -1.3569,-0.53824 -4.5159,-0.5724 -7.0199,-0.0759 -3.4297,0.68001 -4.0295,0.52067 -2.4313,-0.64597 1.583,-1.1556 0.9098,-1.30094 -2.652,-0.57262 -3.3268,0.68025 -4.4802,0.4856 -3.8059,-0.64231 0.9208,-1.54015 -0.7724,-2.21524 -4.3964,-1.75278 -3.0892,0.39423 -3.6245,-2.97255 -0.6024,-3.78949 2.1517,-0.58175 2.9709,-1.96542 2.9709,-5.01867 0,-2.31853 0.5674,-4.21551 1.2609,-4.21551 1.1404,0 3.6654,-6.8209 3.2926,-8.89386 -0.084,-0.46907 0.6067,-0.90705 1.5358,-0.97329 17.4716,-1.24563 28.1878,-7.19626 26.9832,-14.98362 -0.6458,-4.17471 -0.3169,-5.62847 1.4303,-6.32154 1.2479,-0.49503 2.269,-1.86275 2.269,-3.03939 0,-1.17664 1.9497,-3.5745 4.3327,-5.32858 2.4123,-1.77566 4.0115,-4.05464 3.608,-5.14172 -0.3987,-1.07388 0.389,-2.31797 1.7505,-2.76466 7.7525,-2.54351 18.492,-21.33555 13.3572,-23.37242 -1.184,-0.46968 -1.7681,-1.81157 -1.3172,-3.02626 0.4456,-1.20032 -0.7613,-4.57611 -2.6819,-7.50173 -1.9206,-2.92564 -3.492,-6.21438 -3.492,-7.30832 0,-1.09395 -1.2729,-1.98899 -2.8286,-1.98899 -2.3572,0 -2.8286,-0.97467 -2.8286,-5.84802 0,-4.87335 0.4714,-5.84803 2.8286,-5.84803 1.5557,0 2.8286,-0.89504 2.8286,-1.98898 0,-1.09395 1.5911,-4.41269 3.5358,-7.37496 1.9447,-2.96229 3.5357,-6.60217 3.5357,-8.08864 0,-1.48646 0.9196,-3.06743 2.0435,-3.51324 2.4428,-0.96902 3.1367,-4.67518 5.4655,-29.19165 1.4444,-15.20642 1.4376,-19.01689 -0.037,-20.28159 -0.9984,-0.8565 -1.8152,-2.80663 -1.8152,-4.3336 0,-2.7254 -6.7567,-14.67118 -8.8394,-15.62804 -2.0289,-0.93215 -1.0421,-6.2361 1.9344,-10.39792 1.6474,-2.30332 2.5548,-4.92458 2.0164,-5.82506 -0.5384,-0.90046 -0.4543,-1.47461 0.187,-1.27586 0.6412,0.19874 2.9161,-0.84748 5.0552,-2.32494 4.199,-2.90021 5.2058,-6.73601 1.7678,-6.73601 -1.7944,0 -2.1214,-3.49257 -2.1214,-22.66109 0,-19.16853 -0.327,-22.6611 -2.1214,-22.6611 -3.6871,0 -2.3956,-6.8017 2.1918,-11.54384 3.5556,-3.67557 4.0524,-4.96243 2.8286,-7.32637 -1.8827,-3.63635 -1.9243,-8.9079 -0.07,-8.9079 2.3066,0 1.6296,-2.43139 -1.9026,-6.83235 -6.1787,-7.6982 -6.0127,-16.24143 0.4637,-23.86978"
       id="path4264"
       style="fill:#ffffff" />
    <path
       d="m 899.97942,950.62774 c -28.7498,-5.21087 -34.7929,-28.30469 -10.2848,-39.30328 7.7893,-3.49565 8.4364,-5.308 4.6143,-12.92514 -6.8313,-13.61417 -3.8048,-29.65263 7.7922,-41.29385 3.0721,-3.08375 5.1183,-5.6683 4.5473,-5.74345 -0.5711,-0.0752 -1.442,-0.18675 -1.9354,-0.24799 -0.4934,-0.0613 -1.3008,-0.34925 -1.7942,-0.64003 -0.4934,-0.29078 -4.1913,-1.61316 -8.2175,-2.93864 -12.8061,-4.21595 -23.2661,-14.12846 -24.904,-23.60056 -1.8873,-10.91397 -2.4695,-12.8056 -3.9471,-12.82493 -6.7512,-0.0883 -17.7307,-10.34121 -21.5939,-20.16484 -0.1941,-0.4934 -1.0418,-1.90632 -1.8838,-3.13982 -4.5014,-6.59409 -0.6899,-23.22054 6.0667,-26.46417 2.5605,-1.2292 3.5848,-2.21792 3.253,-3.13982 -27.26432,-75.74933 55.9179,-149.89396 133.2534,-118.77568 46.60248,18.75193 74.21528,76.38406 57.01528,118.99995 -0.4432,1.09813 -0.2098,1.56991 0.7768,1.56991 7.4726,0 11.8958,15.00926 7.8632,26.68211 -1.1762,3.40448 -1.292,4.42705 -0.4193,3.70278 2.0617,-1.71105 1.3262,-0.0848 -1.3571,3.00052 -1.4095,1.62072 -3.1429,4.06903 -3.8518,5.44068 -1.9356,3.7448 -10.556,10.43755 -14.8624,11.53885 -4.1116,1.0515 -4.1579,1.13093 -5.6605,9.69136 -2.9345,16.71815 -17.0757,27.61209 -41.46928,31.94665 -3.3676,0.59841 -3.3676,0.59841 1.483,5.83776 10.752,11.61337 13.5192,27.51744 7.0044,40.25672 -3.8472,7.52292 -3.1867,9.48418 4.4178,13.11878 20.00438,9.56126 20.44878,29.79949 0.806,36.71732 -11.7105,4.12424 -78.5562,5.98959 -96.7123,2.69881 z"
       id="path4400"
       style="fill:#ffffff" />
    <path
       d="m 1118.5872,616.85793 c -77.3026,-3.27574 -92.3291,-7.41284 -87.8151,-24.17732 6.8928,-25.5989 9.1487,-35.61012 16.9016,-75.00378 4.4336,-22.52831 10.1555,-51.07081 12.7152,-63.4278 2.6877,-12.97588 4.0566,-24.98393 3.24,-28.42458 -0.7776,-3.27655 -0.5611,-6.41156 0.4812,-6.96669 1.0423,-0.55513 1.8951,-2.86805 1.8951,-5.13978 0,-22.24221 114.0028,-31.33003 174.1251,-13.88053 15.4333,4.47926 17.8316,8.09864 19.0759,28.78836 0.8973,14.91848 25.8624,142.90105 30.2638,155.14647 4.784,13.30959 5.6225,19.98114 2.7515,21.89084 -7.2878,4.84758 -41.8794,9.21235 -87.017,10.97986"
       id="path4439"
       style="fill:#ffffff" />
  </g>
</svg>
